<mxfile host="app.diagrams.net" agent="Mozilla/5.0 (Macintosh; Intel Mac OS X 10_15_7) AppleWebKit/537.36 (KHTML, like Gecko) Chrome/129.0.0.0 Safari/537.36" version="24.8.0">
  <diagram name="Page-1" id="PGCgYU2IwTzHUpVKQciu">
    <mxGraphModel dx="940" dy="591" grid="1" gridSize="10" guides="1" tooltips="1" connect="1" arrows="1" fold="1" page="1" pageScale="1" pageWidth="827" pageHeight="1169" math="0" shadow="0">
      <root>
        <mxCell id="0" />
        <mxCell id="1" parent="0" />
        <mxCell id="Uwe8r49jpmDSMj1WQ2Ow-19" value="" style="rounded=1;whiteSpace=wrap;html=1;" vertex="1" parent="1">
          <mxGeometry x="530" y="286.5" width="320" height="100" as="geometry" />
        </mxCell>
        <mxCell id="Uwe8r49jpmDSMj1WQ2Ow-14" value="" style="rounded=1;whiteSpace=wrap;html=1;" vertex="1" parent="1">
          <mxGeometry x="530" y="130" width="320" height="100" as="geometry" />
        </mxCell>
        <mxCell id="Uwe8r49jpmDSMj1WQ2Ow-4" style="edgeStyle=orthogonalEdgeStyle;rounded=0;orthogonalLoop=1;jettySize=auto;html=1;" edge="1" parent="1" source="Uwe8r49jpmDSMj1WQ2Ow-1" target="Uwe8r49jpmDSMj1WQ2Ow-3">
          <mxGeometry relative="1" as="geometry" />
        </mxCell>
        <mxCell id="Uwe8r49jpmDSMj1WQ2Ow-1" value="client service" style="rounded=1;whiteSpace=wrap;html=1;" vertex="1" parent="1">
          <mxGeometry x="120" y="220" width="120" height="60" as="geometry" />
        </mxCell>
        <mxCell id="Uwe8r49jpmDSMj1WQ2Ow-5" style="edgeStyle=orthogonalEdgeStyle;rounded=0;orthogonalLoop=1;jettySize=auto;html=1;exitX=1;exitY=0.5;exitDx=0;exitDy=0;" edge="1" parent="1" source="Uwe8r49jpmDSMj1WQ2Ow-2" target="Uwe8r49jpmDSMj1WQ2Ow-3">
          <mxGeometry relative="1" as="geometry" />
        </mxCell>
        <mxCell id="Uwe8r49jpmDSMj1WQ2Ow-2" value="client service" style="rounded=1;whiteSpace=wrap;html=1;" vertex="1" parent="1">
          <mxGeometry x="120" y="360" width="120" height="60" as="geometry" />
        </mxCell>
        <mxCell id="Uwe8r49jpmDSMj1WQ2Ow-9" style="edgeStyle=orthogonalEdgeStyle;rounded=0;orthogonalLoop=1;jettySize=auto;html=1;entryX=0;entryY=0.5;entryDx=0;entryDy=0;" edge="1" parent="1" source="Uwe8r49jpmDSMj1WQ2Ow-3" target="Uwe8r49jpmDSMj1WQ2Ow-7">
          <mxGeometry relative="1" as="geometry">
            <Array as="points">
              <mxPoint x="540" y="327" />
            </Array>
          </mxGeometry>
        </mxCell>
        <mxCell id="Uwe8r49jpmDSMj1WQ2Ow-10" style="edgeStyle=orthogonalEdgeStyle;rounded=0;orthogonalLoop=1;jettySize=auto;html=1;entryX=0;entryY=0.5;entryDx=0;entryDy=0;" edge="1" parent="1" source="Uwe8r49jpmDSMj1WQ2Ow-3" target="Uwe8r49jpmDSMj1WQ2Ow-6">
          <mxGeometry relative="1" as="geometry" />
        </mxCell>
        <mxCell id="Uwe8r49jpmDSMj1WQ2Ow-3" value="" style="outlineConnect=0;dashed=0;verticalLabelPosition=bottom;verticalAlign=top;align=center;html=1;shape=mxgraph.aws3.api_gateway;fillColor=#D9A741;gradientColor=none;" vertex="1" parent="1">
          <mxGeometry x="370" y="280" width="76.5" height="93" as="geometry" />
        </mxCell>
        <mxCell id="Uwe8r49jpmDSMj1WQ2Ow-6" value="Cache Server(Storing in memory Hash Map)" style="rounded=1;whiteSpace=wrap;html=1;" vertex="1" parent="1">
          <mxGeometry x="540" y="150" width="120" height="60" as="geometry" />
        </mxCell>
        <mxCell id="Uwe8r49jpmDSMj1WQ2Ow-7" value="Cache Server(Storing in memory Hash Map)" style="rounded=1;whiteSpace=wrap;html=1;" vertex="1" parent="1">
          <mxGeometry x="560" y="296.5" width="120" height="60" as="geometry" />
        </mxCell>
        <mxCell id="Uwe8r49jpmDSMj1WQ2Ow-8" value="segerating with namespaces" style="text;html=1;align=center;verticalAlign=middle;whiteSpace=wrap;rounded=0;" vertex="1" parent="1">
          <mxGeometry x="338.25" y="400" width="140" height="30" as="geometry" />
        </mxCell>
        <mxCell id="Uwe8r49jpmDSMj1WQ2Ow-16" value="" style="edgeStyle=orthogonalEdgeStyle;rounded=0;orthogonalLoop=1;jettySize=auto;html=1;" edge="1" parent="1" source="Uwe8r49jpmDSMj1WQ2Ow-6" target="Uwe8r49jpmDSMj1WQ2Ow-15">
          <mxGeometry relative="1" as="geometry">
            <mxPoint x="660" y="180" as="sourcePoint" />
            <mxPoint x="850" y="220" as="targetPoint" />
          </mxGeometry>
        </mxCell>
        <mxCell id="Uwe8r49jpmDSMj1WQ2Ow-15" value="Cache Server(Storing in memory Hash Map)" style="rounded=1;whiteSpace=wrap;html=1;" vertex="1" parent="1">
          <mxGeometry x="690" y="150" width="120" height="60" as="geometry" />
        </mxCell>
        <mxCell id="Uwe8r49jpmDSMj1WQ2Ow-17" value="Master" style="text;html=1;align=center;verticalAlign=middle;whiteSpace=wrap;rounded=0;" vertex="1" parent="1">
          <mxGeometry x="570" y="210" width="60" height="30" as="geometry" />
        </mxCell>
        <mxCell id="Uwe8r49jpmDSMj1WQ2Ow-18" value="Slave" style="text;html=1;align=center;verticalAlign=middle;whiteSpace=wrap;rounded=0;" vertex="1" parent="1">
          <mxGeometry x="720" y="210" width="60" height="30" as="geometry" />
        </mxCell>
        <mxCell id="Uwe8r49jpmDSMj1WQ2Ow-21" value="Cache Server(Storing in memory Hash Map)" style="rounded=1;whiteSpace=wrap;html=1;" vertex="1" parent="1">
          <mxGeometry x="690" y="296.5" width="120" height="60" as="geometry" />
        </mxCell>
        <mxCell id="Uwe8r49jpmDSMj1WQ2Ow-22" value="Master" style="text;html=1;align=center;verticalAlign=middle;whiteSpace=wrap;rounded=0;" vertex="1" parent="1">
          <mxGeometry x="570" y="356.5" width="60" height="30" as="geometry" />
        </mxCell>
        <mxCell id="Uwe8r49jpmDSMj1WQ2Ow-23" value="Slave" style="text;html=1;align=center;verticalAlign=middle;whiteSpace=wrap;rounded=0;" vertex="1" parent="1">
          <mxGeometry x="730" y="356.5" width="60" height="30" as="geometry" />
        </mxCell>
        <mxCell id="Uwe8r49jpmDSMj1WQ2Ow-24" value="&lt;h1 style=&quot;margin-top: 0px;&quot;&gt;Api Contracts&lt;/h1&gt;&lt;p&gt;1. Get -- (key, namespace,) : Map&amp;lt;Key, Value&amp;gt;&lt;/p&gt;&lt;p&gt;2. Put -- (Key, Value,&amp;nbsp;&lt;span style=&quot;background-color: initial;&quot;&gt;namespace, ttl&lt;/span&gt;&lt;span style=&quot;background-color: initial;&quot;&gt;&amp;nbsp;):&amp;nbsp; Map&amp;lt;Key, Value&amp;gt;&lt;/span&gt;&lt;/p&gt;&lt;p&gt;&lt;span style=&quot;background-color: initial;&quot;&gt;3. Delete --&amp;nbsp;&lt;/span&gt;&lt;span style=&quot;background-color: initial;&quot;&gt;(key, namespace):&amp;nbsp;&lt;/span&gt;&lt;/p&gt;" style="text;html=1;whiteSpace=wrap;overflow=hidden;rounded=0;" vertex="1" parent="1">
          <mxGeometry x="360" y="480" width="490" height="140" as="geometry" />
        </mxCell>
      </root>
    </mxGraphModel>
  </diagram>
</mxfile>
